HIERARCHY
ROOT joint_Root
{
	OFFSET 0.0 0.0 0.0
	CHANNELS 6 Xposition Yposition Zposition Zrotation Xrotation Yrotation 
	JOINT Hips
	{
		OFFSET 4.5925 91.4895 -427.239
		CHANNELS 6 Xposition Yposition Zposition Zrotation Xrotation Yrotation 
		JOINT Spine
		{
			OFFSET 15.7357 0.0 0.0
			CHANNELS 6 Xposition Yposition Zposition Zrotation Xrotation Yrotation 
			JOINT Chest
			{
				OFFSET 8.98455 -0.406207 0.0
				CHANNELS 6 Xposition Yposition Zposition Zrotation Xrotation Yrotation 
				JOINT Neck
				{
					OFFSET 16.3773 0.0 0.0
					CHANNELS 6 Xposition Yposition Zposition Zrotation Xrotation Yrotation 
					JOINT Head
					{
						OFFSET 6.45672 0.0 0.0
						CHANNELS 6 Xposition Yposition Zposition Zrotation Xrotation Yrotation 
						End Site
						{
							OFFSET 0.0 0.0 0.0
						}
					}
				}
				JOINT Shoulder_L
				{
					OFFSET 12.9942 -0.242716 4.98039
					CHANNELS 6 Xposition Yposition Zposition Zrotation Xrotation Yrotation 
					JOINT UpperArm_L
					{
						OFFSET 5.34809 0.0 0.0
						CHANNELS 6 Xposition Yposition Zposition Zrotation Xrotation Yrotation 
						JOINT LowerArm_L
						{
							OFFSET 24.3286 1.87007e-05 0.0
							CHANNELS 6 Xposition Yposition Zposition Zrotation Xrotation Yrotation 
							JOINT Hand_L
							{
								OFFSET 22.2916 0.0 0.0
								CHANNELS 6 Xposition Yposition Zposition Zrotation Xrotation Yrotation 
								End Site
								{
									OFFSET 0.0 0.0 0.0
								}
							}
						}
					}
				}
				JOINT Shoulder_R
				{
					OFFSET 12.9945 -0.242716 -4.98039
					CHANNELS 6 Xposition Yposition Zposition Zrotation Xrotation Yrotation 
					JOINT UpperArm_R
					{
						OFFSET -5.34813 0.0 0.0
						CHANNELS 6 Xposition Yposition Zposition Zrotation Xrotation Yrotation 
						JOINT LowerArm_R
						{
							OFFSET -24.3289 0.000322201 0.0
							CHANNELS 6 Xposition Yposition Zposition Zrotation Xrotation Yrotation 
							JOINT Hand_R
							{
								OFFSET -22.2915 -0.000108084 0.0
								CHANNELS 6 Xposition Yposition Zposition Zrotation Xrotation Yrotation 
								End Site
								{
									OFFSET 0.0 0.0 0.0
								}
							}
						}
					}
				}
			}
		}
		JOINT UpperLeg_L
		{
			OFFSET -2.19248 -6.46944 0.0
			CHANNELS 6 Xposition Yposition Zposition Zrotation Xrotation Yrotation 
			JOINT LowerLeg_L
			{
				OFFSET 39.0811 0.0 -1.23785e-05
				CHANNELS 6 Xposition Yposition Zposition Zrotation Xrotation Yrotation 
				JOINT Foot_L
				{
					OFFSET 40.9854 0.0 -1.26872e-05
					CHANNELS 6 Xposition Yposition Zposition Zrotation Xrotation Yrotation 
					JOINT Toes_L
					{
						OFFSET 11.7543 0.0 0.0
						CHANNELS 6 Xposition Yposition Zposition Zrotation Xrotation Yrotation 
						End Site
						{
							OFFSET 0.0 0.0 0.0
						}
					}
				}
			}
		}
		JOINT UpperLeg_R
		{
			OFFSET -2.19251 6.46944 0.0
			CHANNELS 6 Xposition Yposition Zposition Zrotation Xrotation Yrotation 
			JOINT LowerLeg_R
			{
				OFFSET -39.0811 -0.00228153 -0.0401928
				CHANNELS 6 Xposition Yposition Zposition Zrotation Xrotation Yrotation 
				JOINT Foot_R
				{
					OFFSET -40.9854 0.0 0.0
					CHANNELS 6 Xposition Yposition Zposition Zrotation Xrotation Yrotation 
					JOINT Toes_R
					{
						OFFSET -11.7543 0.0 0.0
						CHANNELS 6 Xposition Yposition Zposition Zrotation Xrotation Yrotation 
						End Site
						{
							OFFSET 0.0 0.0 0.0
						}
					}
				}
			}
		}
	}
}
MOTION
Frames:	7
Frame Time:	0.0333333
0.000000 0.000000 0.000000 0.000000 0.000000 -0.000000 -123.661000 89.172200 185.153000 76.313500 85.459500 12.569700 15.735700 0.000005 -0.000001 83.004000 82.109100 -82.611700 8.984550 -0.406207 -0.000000 7.908270 -1.913670 0.916144 16.377300 -0.000001 -0.000001 1.081990 -1.576460 0.529582 6.456720 -0.000001 -0.000000 -1.728940 0.041707 -0.892314 12.994200 -0.242716 4.980390 -91.091700 3.618110 -73.197100 5.348090 -0.000007 -0.000001 -56.299100 29.126600 -27.096100 24.328600 0.000019 0.000005 9.404640 11.821000 -38.956400 22.291600 -0.000001 0.000005 16.709100 5.226990 2.032480 12.994500 -0.242716 -4.980390 88.332600 9.537640 -80.035900 -5.348130 -0.000001 -0.000004 -67.374100 27.600100 -4.995890 -24.328900 0.000322 -0.000009 0.282707 0.883433 -17.808000 -22.291500 -0.000108 -0.000004 14.829900 5.365490 -1.847640 -2.192480 -6.469440 -0.000000 -177.837000 -8.752400 -7.699660 39.081100 -0.000007 -0.000012 -0.334539 0.489086 34.373200 40.985400 -0.000006 -0.000013 -0.282622 -0.258169 -77.979600 11.754300 -0.000000 0.000003 -0.000088 -0.000919 -16.612900 -2.192510 6.469440 -0.000001 -171.870000 18.761000 149.262000 -39.081100 -0.002282 -0.040193 0.003934 -0.001152 28.626200 -40.985400 0.000008 0.000006 7.284190 4.614400 -54.800600 -11.754300 -0.000006 -0.000006 -0.013116 -0.125607 -21.695200
0.000000 0.000000 0.000000 0.000000 0.000000 -0.000000 -120.921000 88.743000 185.601000 69.468800 86.133400 19.153500 15.735700 0.000005 -0.000001 82.519500 82.162100 -81.702400 8.984550 -0.406207 -0.000000 7.795090 -2.032260 1.771090 16.377300 -0.000001 -0.000001 1.111630 -1.581410 0.438388 6.456720 -0.000001 -0.000000 -1.703910 -0.025962 -1.401190 12.994200 -0.242716 4.980390 -91.128900 3.713910 -73.078900 5.348090 -0.000007 -0.000001 -56.940700 29.245000 -26.028300 24.328600 0.000019 0.000005 9.753130 11.737400 -40.196200 22.291600 -0.000001 0.000005 16.731000 5.232830 1.882260 12.994500 -0.242716 -4.980390 88.296200 9.705550 -79.993500 -5.348130 -0.000001 -0.000004 -66.820400 27.956900 -5.558590 -24.328900 0.000322 -0.000009 0.288160 0.947827 -16.970000 -22.291500 -0.000108 -0.000004 14.699600 5.360650 -1.699230 -2.192480 -6.469440 -0.000000 -177.412000 -8.469020 -5.900270 39.081100 -0.000007 -0.000012 -0.116732 0.171065 34.309300 40.985400 -0.000006 -0.000013 1.863500 -0.746517 -80.003800 11.754300 -0.000000 0.000003 -0.791523 -0.989305 -15.959500 -2.192510 6.469440 -0.000001 -173.244000 15.060800 148.898000 -39.081100 -0.002282 -0.040193 -0.052669 0.087046 32.738100 -40.985400 0.000008 0.000006 6.098720 1.323810 -54.749800 -11.754300 -0.000006 -0.000006 -0.010781 -0.109383 -21.030700
0.000000 0.000000 0.000000 0.000000 0.000000 -0.000000 -118.079000 88.521400 186.047000 66.554200 86.769400 22.343400 15.735700 0.000005 -0.000001 82.827800 82.070600 -81.659900 8.984550 -0.406207 -0.000000 7.993430 -1.969220 2.471290 16.377300 -0.000001 -0.000001 0.998099 -1.716390 0.401947 6.456720 -0.000001 -0.000000 -1.523860 -0.075905 -1.952100 12.994200 -0.242716 4.980390 -91.222800 4.016930 -73.053300 5.348090 -0.000007 -0.000001 -58.127800 29.576500 -24.476000 24.328600 0.000019 0.000005 10.143000 12.091200 -40.499900 22.291600 -0.000001 0.000005 16.927900 5.234340 1.843040 12.994500 -0.242716 -4.980390 88.206100 10.126500 -79.899900 -5.348130 -0.000001 -0.000004 -65.476000 28.496000 -6.610840 -24.328900 0.000322 -0.000009 0.263495 0.910973 -16.191600 -22.291500 -0.000108 -0.000004 14.528500 5.359680 -1.670190 -2.192480 -6.469440 -0.000000 -177.159000 -7.844200 -6.161900 39.081100 -0.000007 -0.000012 0.006135 -0.007811 38.139100 40.985400 -0.000006 -0.000013 2.673730 -0.846764 -77.500700 11.754300 -0.000000 0.000003 -1.003910 -1.184470 -19.822100 -2.192510 6.469440 -0.000001 -174.277000 13.048200 149.397000 -39.081100 -0.002282 -0.040193 -0.098712 0.136805 36.707400 -40.985400 0.000008 0.000006 6.111190 -1.456780 -58.502200 -11.754300 -0.000006 -0.000006 -0.007462 -0.083581 -19.976000
0.000000 0.000000 0.000000 0.000000 0.000000 -0.000000 -115.261000 88.553600 186.513000 71.609300 87.353600 18.075300 15.735700 0.000005 -0.000001 83.824400 81.822200 -82.516000 8.984550 -0.406207 -0.000000 8.518930 -1.742490 2.744470 16.377300 -0.000001 -0.000001 1.143250 -1.956550 0.604776 6.456720 -0.000001 -0.000000 -1.522570 -0.316405 -2.094900 12.994200 -0.242716 4.980390 -91.144800 3.736820 -72.954000 5.348090 -0.000007 -0.000001 -60.319800 30.080600 -22.949100 24.328600 0.000019 0.000005 9.991530 12.537200 -39.062000 22.291600 -0.000001 0.000005 17.035500 5.240130 1.692370 12.994500 -0.242716 -4.980390 88.166700 10.306200 -79.856900 -5.348130 -0.000001 -0.000004 -64.266900 28.755400 -8.184670 -24.328900 0.000322 -0.000009 0.362116 1.320210 -15.384500 -22.291500 -0.000108 -0.000004 14.434900 5.358200 -1.624700 -2.192480 -6.469440 -0.000000 -176.929000 -7.475410 -7.999500 39.081100 -0.000007 -0.000012 0.024054 -0.023937 45.136100 40.985400 -0.000006 -0.000013 1.832110 -0.162861 -72.400900 11.754300 -0.000000 0.000003 -0.040565 -0.262368 -27.356100 -2.192510 6.469440 -0.000001 -175.195000 13.053000 151.259000 -39.081100 -0.002282 -0.040193 -0.118853 0.151381 38.896700 -40.985400 0.000008 0.000006 6.306560 -2.219690 -61.659500 -11.754300 -0.000006 -0.000006 -0.005989 -0.070739 -19.452000
0.000000 0.000000 0.000000 0.000000 0.000000 -0.000000 -112.704000 88.766900 186.979000 83.668900 87.739600 6.773330 15.735700 0.000005 -0.000001 85.645700 81.632200 -84.348000 8.984550 -0.406207 -0.000000 8.938390 -1.250770 2.691070 16.377300 -0.000001 -0.000001 1.425600 -2.295810 0.842854 6.456720 -0.000001 -0.000000 -1.402560 -0.889639 -1.738530 12.994200 -0.242716 4.980390 -91.025700 3.335960 -72.898000 5.348090 -0.000007 -0.000001 -61.946700 31.324800 -21.824100 24.328600 0.000019 0.000005 9.331170 12.785800 -36.592500 22.291600 -0.000001 0.000005 16.293600 5.228320 2.000150 12.994500 -0.242716 -4.980390 88.208200 10.109200 -79.894700 -5.348130 -0.000001 -0.000004 -63.768800 28.141700 -9.564950 -24.328900 0.000322 -0.000009 0.544761 2.006310 -15.221800 -22.291500 -0.000108 -0.000004 14.750200 5.349020 -1.348100 -2.192480 -6.469440 -0.000000 -176.963000 -7.227540 -11.904900 39.081100 -0.000007 -0.000012 0.056564 -0.041518 53.718900 40.985400 -0.000006 -0.000013 1.729580 0.213549 -63.894200 11.754300 -0.000000 0.000003 -0.058423 -0.326628 -30.060200 -2.192510 6.469440 -0.000001 -176.099000 14.492300 153.652000 -39.081100 -0.002282 -0.040193 -0.159412 0.196450 39.630200 -40.985400 0.000008 0.000006 6.102180 -1.317380 -64.112900 -11.754300 -0.000006 -0.000006 -0.005285 -0.064199 -19.185400
0.000000 0.000000 0.000000 0.000000 0.000000 -0.000000 -110.330000 89.046900 187.359000 95.080200 87.420300 -4.070060 15.735700 0.000005 -0.000001 88.236600 81.491500 -87.016500 8.984550 -0.406207 -0.000000 9.249740 -0.504973 2.479100 16.377300 -0.000001 -0.000001 1.598420 -2.569410 1.190820 6.456720 -0.000001 -0.000000 -1.274180 -1.462350 -1.397500 12.994200 -0.242716 4.980390 -91.031100 3.316750 -72.719900 5.348090 -0.000007 -0.000001 -62.784700 32.742000 -20.692400 24.328600 0.000019 0.000005 9.036450 13.550700 -34.167900 22.291600 -0.000001 0.000005 14.885000 5.221410 2.178230 12.994500 -0.242716 -4.980390 88.307100 9.812650 -80.161500 -5.348130 -0.000001 -0.000004 -63.256700 27.440300 -11.067700 -24.328900 0.000322 -0.000009 0.488912 1.743980 -15.697200 -22.291500 -0.000108 -0.000004 15.314000 5.350930 -1.404670 -2.192480 -6.469440 -0.000000 -177.119000 -7.242940 -16.518300 39.081100 -0.000007 -0.000012 0.097329 -0.052430 61.687100 40.985400 -0.000006 -0.000013 0.442106 -0.802831 -55.791800 11.754300 -0.000000 0.000003 -0.010833 -0.109772 -21.050300 -2.192510 6.469440 -0.000001 -176.863000 15.809300 156.097000 -39.081100 -0.002282 -0.040193 -0.153278 0.189211 39.605100 -40.985400 0.000008 0.000006 6.625650 0.070233 -66.070300 -11.754300 -0.000006 -0.000006 -0.004497 -0.056508 -18.872000
0.000000 0.000000 0.000000 0.000000 0.000000 -0.000000 -108.044000 89.342600 187.577000 99.204600 86.612200 -7.742760 15.735700 0.000005 -0.000001 90.932500 81.351200 -89.821500 8.984550 -0.406207 -0.000000 9.527510 0.296936 2.195500 16.377300 -0.000001 -0.000001 1.658230 -2.664380 1.437180 6.456720 -0.000001 -0.000000 -1.237420 -1.892240 -1.114800 12.994200 -0.242716 4.980390 -91.138000 3.607040 -72.476700 5.348090 -0.000007 -0.000001 -63.406500 33.730500 -18.996800 24.328600 0.000019 0.000005 9.285250 15.030800 -32.229100 22.291600 -0.000001 0.000005 13.644900 5.220940 2.188290 12.994500 -0.242716 -4.980390 88.377100 9.682240 -80.437800 -5.348130 -0.000001 -0.000004 -62.020100 27.573600 -13.182300 -24.328900 0.000322 -0.000009 0.210175 0.712343 -16.523000 -22.291500 -0.000108 -0.000004 15.556100 5.361160 -1.715030 -2.192480 -6.469440 -0.000000 -177.562000 -8.043960 -19.707000 39.081100 -0.000007 -0.000012 0.114194 -0.050043 66.333100 40.985400 -0.000006 -0.000013 0.504756 -3.286090 -54.651800 11.754300 -0.000000 0.000003 -0.003331 -0.044294 -18.378200 -2.192510 6.469440 -0.000001 -177.625000 16.469800 158.601000 -39.081100 -0.002282 -0.040193 -0.130059 0.164000 39.112900 -40.985400 0.000008 0.000006 7.067050 1.308900 -67.665700 -11.754300 -0.000006 -0.000006 -0.004208 -0.053584 -18.752900
